HIERARCHY
ROOT newVegas:Hips
{
	OFFSET 0.000000 96.479958 0.000000
	CHANNELS 6 Xposition Yposition Zposition Xrotation Yrotation Zrotation
	JOINT newVegas:Pelvis
	{
		OFFSET 0.000000 0.000000 0.000000
		CHANNELS 3 Xrotation Yrotation Zrotation
		JOINT newVegas:LeftUpLeg
		{
			OFFSET 18.735201 -5.666702 -4.541200
			CHANNELS 3 Xrotation Yrotation Zrotation
			JOINT newVegas:LeftLeg
			{
				OFFSET -0.021200 -31.938179 0.493100
				CHANNELS 3 Xrotation Yrotation Zrotation
				JOINT newVegas:LeftFoot
				{
					OFFSET 0.021200 -31.938179 -4.336299
					CHANNELS 3 Xrotation Yrotation Zrotation
					JOINT newVegas:LeftToeBase
					{
						OFFSET 0.943001 -26.722000 15.023500
						CHANNELS 3 Xrotation Yrotation Zrotation
						End Site
						{
							OFFSET 0.000000 30.670183 0.000000
						}
					}
				}
				JOINT newVegas:Left_PantLeg
				{
					OFFSET 0.663870 -9.044666 -1.108900
					CHANNELS 3 Xrotation Yrotation Zrotation
					End Site
					{
						OFFSET 1.415995 20.635357 0.000000
					}
				}
			}
		}
		JOINT newVegas:RightUpLeg
		{
			OFFSET -18.735201 -5.666702 -4.541200
			CHANNELS 3 Xrotation Yrotation Zrotation
			JOINT newVegas:RightLeg
			{
				OFFSET 0.018946 -31.938133 0.493100
				CHANNELS 3 Xrotation Yrotation Zrotation
				JOINT newVegas:RightFoot
				{
					OFFSET -0.018946 -31.938126 -4.336299
					CHANNELS 3 Xrotation Yrotation Zrotation
					JOINT newVegas:RightToeBase
					{
						OFFSET -0.943001 -26.722004 15.023500
						CHANNELS 3 Xrotation Yrotation Zrotation
						End Site
						{
							OFFSET 0.000000 30.670187 0.000000
						}
					}
				}
				JOINT newVegas:Right_PantLeg
				{
					OFFSET -0.661674 -9.044716 -1.108900
					CHANNELS 3 Xrotation Yrotation Zrotation
					End Site
					{
						OFFSET -1.415958 20.635269 0.000000
					}
				}
			}
		}
	}
	JOINT newVegas:Spine
	{
		OFFSET 0.000000 10.199997 -0.299500
		CHANNELS 3 Xrotation Yrotation Zrotation
		JOINT newVegas:Spine1
		{
			OFFSET 0.000000 11.900002 -1.516600
			CHANNELS 3 Xrotation Yrotation Zrotation
			JOINT newVegas:Spine2
			{
				OFFSET 0.000000 13.600006 -2.842500
				CHANNELS 3 Xrotation Yrotation Zrotation
				JOINT newVegas:Neck
				{
					OFFSET 0.000000 9.624100 -2.890100
					CHANNELS 3 Xrotation Yrotation Zrotation
					JOINT newVegas:Head
					{
						OFFSET 0.000000 14.068802 -1.351900
						CHANNELS 3 Xrotation Yrotation Zrotation
						JOINT newVegas:Hair_Back
						{
							OFFSET 0.000000 3.231903 -17.524799
							CHANNELS 3 Xrotation Yrotation Zrotation
							End Site
							{
								OFFSET 0.000000 19.849884 0.000000
							}
						}
						JOINT newVegas:Hair_Front
						{
							OFFSET 0.000000 31.260406 4.573800
							CHANNELS 3 Xrotation Yrotation Zrotation
							JOINT newVegas:Hair_Front1
							{
								OFFSET 0.000000 2.284103 11.993300
								CHANNELS 3 Xrotation Yrotation Zrotation
								JOINT newVegas:Hair_Front2
								{
									OFFSET 0.000000 2.284103 11.993300
									CHANNELS 3 Xrotation Yrotation Zrotation
									End Site
									{
										OFFSET 0.000000 12.208862 0.000000
									}
								}
							}
						}
						JOINT newVegas:Jowel
						{
							OFFSET 0.000000 -7.458206 6.864100
							CHANNELS 3 Xrotation Yrotation Zrotation
							End Site
							{
								OFFSET 0.000000 19.849884 0.000000
							}
						}
					}
				}
				JOINT newVegas:LeftShoulder
				{
					OFFSET 15.263000 10.923401 -0.547700
					CHANNELS 3 Xrotation Yrotation Zrotation
					JOINT newVegas:LeftArm
					{
						OFFSET 25.438599 -2.830597 -13.032500
						CHANNELS 3 Xrotation Yrotation Zrotation
						JOINT newVegas:LeftForeArm
						{
							OFFSET 29.960503 0.000000 0.000000
							CHANNELS 3 Xrotation Yrotation Zrotation
							JOINT newVegas:LeftHand
							{
								OFFSET 27.849251 0.000000 0.000000
								CHANNELS 3 Xrotation Yrotation Zrotation
								JOINT newVegas:LeftHandThumb1
								{
									OFFSET 4.487587 -3.305161 6.305391
									CHANNELS 3 Xrotation Yrotation Zrotation
									JOINT newVegas:LeftHandThumb2
									{
										OFFSET 5.480453 -3.164139 3.164143
										CHANNELS 3 Xrotation Yrotation Zrotation
										JOINT newVegas:LeftHandThumb3
										{
											OFFSET 5.159721 -2.978973 2.978967
											CHANNELS 3 Xrotation Yrotation Zrotation
											End Site
											{
												OFFSET 2.494507 5.926697 1.738678
											}
										}
									}
								}
								JOINT newVegas:LeftHandIndex1
								{
									OFFSET 18.578728 -0.527832 5.208049
									CHANNELS 3 Xrotation Yrotation Zrotation
									JOINT newVegas:LeftHandIndex2
									{
										OFFSET 3.192009 0.000000 0.000000
										CHANNELS 3 Xrotation Yrotation Zrotation
										JOINT newVegas:LeftHandIndex3
										{
											OFFSET 3.835129 0.000000 0.000000
											CHANNELS 3 Xrotation Yrotation Zrotation
											End Site
											{
												OFFSET -0.034599 3.816971 0.371180
											}
										}
									}
								}
								JOINT newVegas:LeftHandMiddle1
								{
									OFFSET 18.476105 0.000000 0.000000
									CHANNELS 3 Xrotation Yrotation Zrotation
									JOINT newVegas:LeftHandMiddle2
									{
										OFFSET 3.324875 0.000000 0.000000
										CHANNELS 3 Xrotation Yrotation Zrotation
										JOINT newVegas:LeftHandMiddle3
										{
											OFFSET 4.596550 0.000000 0.000000
											CHANNELS 3 Xrotation Yrotation Zrotation
											End Site
											{
												OFFSET 0.057701 4.578827 0.399218
											}
										}
									}
								}
								JOINT newVegas:LeftHandRing1
								{
									OFFSET 17.732719 0.121887 -4.201567
									CHANNELS 3 Xrotation Yrotation Zrotation
									JOINT newVegas:LeftHandRing2
									{
										OFFSET 2.733170 0.000000 0.000000
										CHANNELS 3 Xrotation Yrotation Zrotation
										JOINT newVegas:LeftHandRing3
										{
											OFFSET 3.178268 0.000000 0.000000
											CHANNELS 3 Xrotation Yrotation Zrotation
											End Site
											{
												OFFSET 0.119102 3.170624 0.185394
											}
										}
									}
								}
								JOINT newVegas:LeftHandPinky1
								{
									OFFSET 15.989624 -0.606689 -7.535461
									CHANNELS 3 Xrotation Yrotation Zrotation
									JOINT newVegas:LeftHandPinky2
									{
										OFFSET 2.538986 0.000000 0.000000
										CHANNELS 3 Xrotation Yrotation Zrotation
										JOINT newVegas:LeftHandPinky3
										{
											OFFSET 2.593102 0.000000 0.000000
											CHANNELS 3 Xrotation Yrotation Zrotation
											End Site
											{
												OFFSET -0.150902 2.584198 0.152708
											}
										}
									}
								}
							}
							JOINT newVegas:Left_Sleeve
							{
								OFFSET 0.267448 -0.649796 0.577675
								CHANNELS 3 Xrotation Yrotation Zrotation
								End Site
								{
									OFFSET 0.000000 15.991241 0.000000
								}
							}
							JOINT newVegas:Left_CapeC
							{
								OFFSET 15.715958 -8.608795 -6.935905
								CHANNELS 3 Xrotation Yrotation Zrotation
								JOINT newVegas:Left_CapeC1
								{
									OFFSET 0.000000 -8.688499 0.000000
									CHANNELS 3 Xrotation Yrotation Zrotation
									End Site
									{
										OFFSET 0.000000 8.688499 0.000000
									}
								}
							}
						}
						JOINT newVegas:Left_CapeB
						{
							OFFSET 26.118385 -8.608795 -7.079235
							CHANNELS 3 Xrotation Yrotation Zrotation
							JOINT newVegas:Left_CapeB1
							{
								OFFSET 0.000000 -8.688499 0.000000
								CHANNELS 3 Xrotation Yrotation Zrotation
								End Site
								{
									OFFSET 0.000000 8.688499 0.000000
								}
							}
						}
						JOINT newVegas:Left_CapeA
						{
							OFFSET 5.115639 -8.608795 -10.395809
							CHANNELS 3 Xrotation Yrotation Zrotation
							JOINT newVegas:Left_CapeA1
							{
								OFFSET 0.000000 -8.688499 0.000000
								CHANNELS 3 Xrotation Yrotation Zrotation
								End Site
								{
									OFFSET 0.000000 8.688499 0.000000
								}
							}
						}
					}
				}
				JOINT newVegas:RightShoulder
				{
					OFFSET -15.263000 10.923401 -0.547700
					CHANNELS 3 Xrotation Yrotation Zrotation
					JOINT newVegas:RightArm
					{
						OFFSET -25.438599 -2.830597 -13.032500
						CHANNELS 3 Xrotation Yrotation Zrotation
						JOINT newVegas:RightForeArm
						{
							OFFSET -29.960503 0.000000 0.000000
							CHANNELS 3 Xrotation Yrotation Zrotation
							JOINT newVegas:RightHand
							{
								OFFSET -27.849251 0.000000 0.000000
								CHANNELS 3 Xrotation Yrotation Zrotation
								JOINT newVegas:RightHandThumb1
								{
									OFFSET -4.487587 -3.305161 6.305391
									CHANNELS 3 Xrotation Yrotation Zrotation
									JOINT newVegas:RightHandThumb2
									{
										OFFSET -5.480453 -3.164139 3.164143
										CHANNELS 3 Xrotation Yrotation Zrotation
										JOINT newVegas:RightHandThumb3
										{
											OFFSET -5.159721 -2.978973 2.978967
											CHANNELS 3 Xrotation Yrotation Zrotation
											End Site
											{
												OFFSET -2.494507 5.926697 1.738678
											}
										}
									}
								}
								JOINT newVegas:RightHandIndex1
								{
									OFFSET -18.578728 -0.527832 5.208049
									CHANNELS 3 Xrotation Yrotation Zrotation
									JOINT newVegas:RightHandIndex2
									{
										OFFSET -3.192009 0.000000 0.000000
										CHANNELS 3 Xrotation Yrotation Zrotation
										JOINT newVegas:RightHandIndex3
										{
											OFFSET -3.835129 0.000000 0.000000
											CHANNELS 3 Xrotation Yrotation Zrotation
											End Site
											{
												OFFSET 0.034599 3.816971 0.371180
											}
										}
									}
								}
								JOINT newVegas:RightHandMiddle1
								{
									OFFSET -18.476105 0.000000 0.000000
									CHANNELS 3 Xrotation Yrotation Zrotation
									JOINT newVegas:RightHandMiddle2
									{
										OFFSET -3.324875 0.000000 0.000000
										CHANNELS 3 Xrotation Yrotation Zrotation
										JOINT newVegas:RightHandMiddle3
										{
											OFFSET -4.596550 0.000000 0.000000
											CHANNELS 3 Xrotation Yrotation Zrotation
											End Site
											{
												OFFSET -0.057701 4.578827 0.399218
											}
										}
									}
								}
								JOINT newVegas:RightHandRing1
								{
									OFFSET -17.732719 0.121887 -4.201567
									CHANNELS 3 Xrotation Yrotation Zrotation
									JOINT newVegas:RightHandRing2
									{
										OFFSET -2.733170 0.000000 0.000000
										CHANNELS 3 Xrotation Yrotation Zrotation
										JOINT newVegas:RightHandRing3
										{
											OFFSET -3.178268 0.000000 0.000000
											CHANNELS 3 Xrotation Yrotation Zrotation
											End Site
											{
												OFFSET -0.119102 3.170624 0.185394
											}
										}
									}
								}
								JOINT newVegas:RightHandPinky1
								{
									OFFSET -15.989624 -0.606689 -7.535461
									CHANNELS 3 Xrotation Yrotation Zrotation
									JOINT newVegas:RightHandPinky2
									{
										OFFSET -2.538986 0.000000 0.000000
										CHANNELS 3 Xrotation Yrotation Zrotation
										JOINT newVegas:RightHandPinky3
										{
											OFFSET -2.593102 0.000000 0.000000
											CHANNELS 3 Xrotation Yrotation Zrotation
											End Site
											{
												OFFSET 0.150902 2.584198 0.152708
											}
										}
									}
								}
							}
							JOINT newVegas:Right_CapeC
							{
								OFFSET -15.715958 -8.608795 -6.935905
								CHANNELS 3 Xrotation Yrotation Zrotation
								JOINT newVegas:Right_CapeC1
								{
									OFFSET 0.000000 -8.688499 0.000000
									CHANNELS 3 Xrotation Yrotation Zrotation
									End Site
									{
										OFFSET 0.000000 8.688499 0.000000
									}
								}
							}
							JOINT newVegas:Right_Sleeve
							{
								OFFSET -0.267448 -0.649994 0.577675
								CHANNELS 3 Xrotation Yrotation Zrotation
								End Site
								{
									OFFSET 0.000000 15.991302 0.000000
								}
							}
						}
						JOINT newVegas:Right_CapeA
						{
							OFFSET -5.115540 -8.608795 -10.395824
							CHANNELS 3 Xrotation Yrotation Zrotation
							JOINT newVegas:Right_CapeA1
							{
								OFFSET 0.000000 -8.688499 0.000000
								CHANNELS 3 Xrotation Yrotation Zrotation
								End Site
								{
									OFFSET 0.000000 8.688499 0.000000
								}
							}
						}
						JOINT newVegas:Right_CapeB
						{
							OFFSET -26.118187 -8.608795 -7.079266
							CHANNELS 3 Xrotation Yrotation Zrotation
							JOINT newVegas:Right_CapeB1
							{
								OFFSET 0.000000 -8.688499 0.000000
								CHANNELS 3 Xrotation Yrotation Zrotation
								End Site
								{
									OFFSET 0.000000 8.688499 0.000000
								}
							}
						}
					}
				}
				JOINT newVegas:Left_Collar
				{
					OFFSET 18.625099 8.655502 8.828100
					CHANNELS 3 Xrotation Yrotation Zrotation
					JOINT newVegas:Left_Collar1
					{
						OFFSET 14.783401 10.540405 -1.259500
						CHANNELS 3 Xrotation Yrotation Zrotation
						End Site
						{
							OFFSET 0.000000 18.199875 0.000000
						}
					}
				}
				JOINT newVegas:Collar_Back
				{
					OFFSET 0.000000 15.630707 -20.132601
					CHANNELS 3 Xrotation Yrotation Zrotation
					End Site
					{
						OFFSET 0.000000 22.523010 0.000000
					}
				}
				JOINT newVegas:Left_Peck
				{
					OFFSET 17.239599 -5.132599 25.482599
					CHANNELS 3 Xrotation Yrotation Zrotation
					End Site
					{
						OFFSET 0.000000 22.523010 0.000000
					}
				}
				JOINT newVegas:Right_Peck
				{
					OFFSET -17.239599 -5.132202 25.482599
					CHANNELS 3 Xrotation Yrotation Zrotation
					End Site
					{
						OFFSET 0.000000 22.523010 0.000000
					}
				}
				JOINT newVegas:Right_Collar
				{
					OFFSET -18.625099 8.655792 8.828100
					CHANNELS 3 Xrotation Yrotation Zrotation
					JOINT newVegas:Right_Collar1
					{
						OFFSET -14.783401 10.539993 -1.259500
						CHANNELS 3 Xrotation Yrotation Zrotation
						End Site
						{
							OFFSET 0.000000 18.199631 0.000000
						}
					}
				}
			}
		}
		JOINT newVegas:Belly
		{
			OFFSET 0.000000 -6.540398 9.014299
			CHANNELS 3 Xrotation Yrotation Zrotation
			End Site
			{
				OFFSET 0.000000 11.566666 0.000000
			}
		}
	}
	JOINT newVegas:ElvisFacialAnim_Joint
	{
		OFFSET 1.000000 -95.330101 -8.825800
		CHANNELS 3 Xrotation Yrotation Zrotation
		End Site
		{
			OFFSET 0.000000 35.315800 0.000000
		}
	}
}
MOTION
Frames: 4
Frame Time: 0.016667
-3.480051 91.118660 0.970463 -6.266290 -26.191212 1.607540 0.000000 0.000001 0.000000 -16.802158 9.299688 11.362989 34.267872 9.030105 1.585179 -1.195861 19.486567 -12.233530 -0.000000 -0.000001 -0.000000 -0.000000 0.000000 -0.000000 -5.936920 -33.807510 -13.039882 37.803676 7.623742 -6.552869 -29.138267 -20.729925 4.937877 0.000000 -0.000000 0.000000 0.000003 -0.000001 0.000000 5.563753 -2.843937 -2.379896 1.469060 -2.839395 -0.460261 1.463317 -2.694939 0.220314 -0.359223 0.074621 -1.087029 -0.359221 0.074621 -1.087030 -0.000000 -0.000001 -0.000000 -0.359223 0.074607 -1.087029 -0.359224 0.074655 -1.087032 -0.000000 -0.000000 0.000000 -0.000000 -0.000001 -0.000000 -0.595444 -16.332003 -20.041822 12.420920 10.550268 -35.769718 0.000207 -96.391830 0.000207 -130.486379 -9.490890 13.340951 -12.800134 -17.470123 4.121647 1.000147 0.731316 -1.438318 0.000001 -0.000002 -0.000003 -3.532550 4.254380 -63.954586 3.402100 5.315503 -65.218901 -0.000001 -0.000000 -0.000000 2.434367 7.296029 -69.364082 3.297858 5.266371 -64.088655 -0.000001 -0.000000 0.000001 4.717034 8.075502 -77.582281 2.056304 4.456867 -49.517656 -0.000001 0.000001 -0.000001 6.410347 8.363773 -80.414576 1.722718 4.149872 -45.074403 -0.000002 -0.000003 0.000001 0.000003 -0.000002 -0.000002 0.000003 -0.000002 -0.000002 0.000002 -0.000001 -0.000002 -0.000000 0.000001 -0.000000 0.000000 0.000001 -0.000001 -0.000000 0.000001 -0.000000 -0.000001 0.000001 0.000001 0.930387 18.037669 10.376102 6.836817 30.018924 41.382863 -0.001316 94.273529 0.001269 -34.121054 -22.154909 26.633995 20.470541 7.475579 18.843589 4.151696 -12.160914 -33.848003 0.000001 -0.000000 -0.000000 -0.887083 1.427988 12.684524 1.917419 -3.767459 53.934322 -0.000002 0.000000 0.000000 0.770892 -5.199578 54.618823 5.563870 -4.568226 101.238587 -0.000000 0.000001 0.000001 6.934481 -8.544258 63.908769 2.909301 -4.317391 67.934728 0.000002 0.000002 0.000001 8.373429 -8.171782 73.989950 2.173659 -3.940936 57.745384 0.000002 -0.000002 -0.000000 -0.000001 -0.000000 -0.000000 0.000001 0.000000 0.000001 -0.000001 -0.000000 -0.000001 -0.000001 0.000000 -0.000004 -0.000000 0.000000 -0.000003 -0.000001 0.000000 -0.000004 -0.000000 -0.000000 -0.000001 -0.000000 -0.000000 -0.000000 -0.000000 -0.000000 -0.000000 -0.000000 -0.000000 -0.000000 -0.000000 -0.000000 -0.000000 -0.000000 -0.000000 -0.000000 -0.000000 -0.000000 -0.000000 -0.000000 -0.000000 -0.000000 0.000000 -0.000002 -0.000000 0.000000 0.000001 0.000000 
-3.847045 91.201477 1.064247 -6.320443 -26.890492 1.507489 -0.000000 0.000001 -0.000000 -16.807991 9.253235 11.527970 34.694841 8.830996 1.598043 -0.726685 20.214117 -12.016910 0.000000 -0.000001 -0.000000 -0.000001 -0.000000 -0.000000 -5.466748 -33.529242 -12.646630 37.339087 7.611210 -6.535072 -29.042839 -20.374547 4.847670 0.000000 0.000002 -0.000000 0.000000 0.000003 -0.000001 5.592363 -2.727535 -2.362979 1.469656 -2.769740 -0.466833 1.463645 -2.627372 0.198466 -0.357684 0.092772 -1.066239 -0.357683 0.092777 -1.066240 0.000000 -0.000003 0.000000 -0.357684 0.092771 -1.066238 -0.357680 0.092791 -1.066245 0.000000 -0.000002 -0.000000 0.000000 -0.000003 0.000000 -0.595444 -16.332003 -20.041822 11.979359 10.162487 -35.915409 0.000449 -96.251156 0.000416 -130.145170 -9.203712 13.619363 -12.800129 -17.470133 4.121650 1.000148 0.731315 -1.438319 0.000000 -0.000004 -0.000003 -3.532548 4.254375 -63.954586 3.402101 5.315505 -65.218908 -0.000006 -0.000002 -0.000001 2.434369 7.296026 -69.364082 3.297863 5.266367 -64.088662 -0.000004 -0.000000 -0.000001 4.717035 8.075494 -77.582288 2.056305 4.456867 -49.517649 0.000001 0.000001 0.000001 6.410349 8.363766 -80.414576 1.722716 4.149870 -45.074406 0.000002 -0.000003 -0.000001 0.000004 -0.000001 -0.000002 0.000004 -0.000001 -0.000002 0.000003 -0.000001 -0.000002 -0.000001 0.000001 -0.000000 -0.000001 0.000001 -0.000001 -0.000001 0.000001 -0.000000 -0.000002 0.000001 0.000001 0.928819 18.095135 10.321579 7.039707 29.557388 41.115044 -0.000475 94.754456 0.000389 -34.318712 -22.151494 26.224433 20.470540 7.475581 18.843585 4.151697 -12.160918 -33.848000 0.000002 -0.000003 -0.000001 -0.887083 1.427990 12.684523 1.917416 -3.767460 53.934326 0.000000 0.000002 -0.000003 0.770889 -5.199576 54.618823 5.563873 -4.568226 101.238594 0.000002 0.000001 0.000003 6.934478 -8.544258 63.908769 2.909302 -4.317389 67.934728 0.000001 -0.000001 0.000001 8.373428 -8.171776 73.989950 2.173655 -3.940938 57.745384 0.000002 -0.000002 -0.000001 -0.000003 0.000000 -0.000001 -0.000000 0.000000 0.000001 -0.000004 -0.000000 -0.000001 0.000000 0.000001 -0.000001 0.000001 0.000000 -0.000001 0.000000 0.000001 -0.000001 0.000001 -0.000000 0.000000 -0.000000 -0.000002 0.000000 -0.000000 -0.000002 0.000000 -0.000000 -0.000002 0.000000 -0.000000 -0.000002 0.000000 -0.000000 -0.000002 0.000000 -0.000000 -0.000002 0.000000 -0.000000 -0.000002 0.000000 0.000000 -0.000003 0.000000 -0.000000 0.000001 -0.000000 
-4.198405 91.286018 1.155072 -6.376193 -27.589593 1.405920 0.000000 0.000000 -0.000000 -16.702353 9.223867 11.686477 34.972566 8.724026 1.607928 -0.263649 20.853835 -11.892672 -0.000000 -0.000001 -0.000000 0.000000 -0.000000 0.000001 -5.005309 -33.210811 -12.263769 36.866755 7.541516 -6.513443 -28.920285 -20.001391 4.794076 -0.000000 0.000002 -0.000000 0.000000 -0.000001 0.000001 5.618891 -2.599857 -2.346400 1.470253 -2.697861 -0.473616 1.463942 -2.557627 0.176189 -0.351328 0.113985 -1.041038 -0.351324 0.113974 -1.041038 0.000000 -0.000004 0.000000 -0.351258 0.113988 -1.041037 -0.351260 0.113971 -1.041041 0.000000 -0.000002 0.000000 0.000000 -0.000004 0.000000 -0.595444 -16.331998 -20.041821 11.555121 9.778311 -36.062299 0.000417 -96.110283 0.000449 -129.807458 -8.910036 13.881072 -12.800132 -17.470133 4.121648 1.000149 0.731318 -1.438314 0.000001 -0.000002 -0.000001 -3.532548 4.254376 -63.954586 3.402101 5.315503 -65.218908 0.000000 0.000000 0.000001 2.434369 7.296029 -69.364082 3.297860 5.266375 -64.088649 -0.000002 -0.000001 -0.000002 4.717034 8.075496 -77.582288 2.056312 4.456864 -49.517652 0.000000 0.000001 0.000000 6.410350 8.363768 -80.414583 1.722716 4.149871 -45.074406 -0.000003 0.000002 0.000001 0.000003 0.000000 0.000001 0.000003 0.000000 0.000001 0.000002 0.000000 0.000001 -0.000002 0.000002 -0.000003 -0.000002 0.000001 -0.000004 -0.000002 0.000002 -0.000003 -0.000003 0.000002 -0.000002 0.926479 18.152628 10.275618 7.261006 29.087535 40.849166 -0.000513 95.247500 0.000484 -34.508366 -22.138981 25.801849 20.470543 7.475581 18.843589 4.151695 -12.160916 -33.848000 0.000001 -0.000000 -0.000000 -0.887080 1.427987 12.684530 1.917414 -3.767460 53.934316 0.000000 0.000001 -0.000002 0.770892 -5.199580 54.618823 5.563872 -4.568224 101.238594 0.000000 0.000001 0.000000 6.934479 -8.544258 63.908769 2.909298 -4.317390 67.934728 0.000002 -0.000001 -0.000001 8.373430 -8.171777 73.989957 2.173660 -3.940935 57.745384 0.000001 -0.000002 -0.000001 -0.000005 -0.000000 -0.000001 -0.000005 0.000000 0.000000 -0.000005 -0.000001 -0.000001 0.000000 0.000001 0.000001 0.000001 0.000000 0.000002 0.000000 0.000001 0.000001 0.000001 0.000000 0.000004 -0.000000 0.000001 0.000000 -0.000000 0.000001 0.000000 -0.000000 0.000001 0.000000 -0.000000 0.000001 0.000000 -0.000000 0.000001 0.000000 -0.000000 0.000001 0.000000 -0.000000 0.000001 0.000000 0.000000 0.000002 0.000000 0.000000 0.000000 -0.000000 
-4.541414 91.373817 1.243817 -6.433602 -28.288366 1.303511 -0.000000 -0.000001 0.000000 -16.654248 9.208510 11.786774 35.160564 8.706702 1.612369 0.177993 21.177124 -11.776269 -0.000000 -0.000000 -0.000000 -0.000000 0.000000 -0.000000 -4.542047 -32.860689 -11.886387 36.376000 7.422906 -6.485949 -28.773627 -19.610631 4.768998 -0.000000 0.000002 0.000000 0.000000 0.000002 -0.000001 5.643882 -2.463699 -2.330258 1.470858 -2.625026 -0.480489 1.464210 -2.487010 0.153857 -0.340525 0.137836 -1.011800 -0.340526 0.137822 -1.011801 0.000000 -0.000001 -0.000000 -0.340453 0.137830 -1.011800 -0.340531 0.137855 -1.011800 0.000000 -0.000002 0.000000 0.000000 -0.000001 -0.000000 -0.595443 -16.332002 -20.041822 11.157884 9.410628 -36.208967 0.000343 -95.973877 0.000320 -129.478448 -8.615275 14.116776 -12.800129 -17.470121 4.121646 1.000150 0.731316 -1.438318 0.000001 -0.000000 -0.000003 -3.532546 4.254376 -63.954579 3.402100 5.315511 -65.218908 -0.000001 0.000000 0.000000 2.434372 7.296031 -69.364082 3.297862 5.266372 -64.088662 -0.000003 -0.000002 0.000000 4.717036 8.075496 -77.582288 2.056307 4.456869 -49.517649 -0.000006 -0.000001 0.000001 6.410352 8.363768 -80.414583 1.722716 4.149872 -45.074406 0.000003 0.000000 -0.000001 0.000003 -0.000002 -0.000000 0.000003 -0.000002 -0.000000 0.000002 -0.000001 -0.000000 0.000001 0.000001 0.000001 0.000001 0.000002 -0.000003 0.000001 0.000001 0.000001 -0.000000 0.000002 0.000001 0.923532 18.206699 10.240310 7.499874 28.626697 40.584649 -0.000443 95.740688 0.000421 -34.687280 -22.112912 25.372710 20.470540 7.475577 18.843589 4.151696 -12.160916 -33.848000 0.000001 0.000002 -0.000004 -0.887084 1.427987 12.684527 1.917416 -3.767463 53.934319 -0.000000 -0.000000 0.000001 0.770890 -5.199581 54.618823 5.563876 -4.568227 101.238594 0.000001 0.000002 -0.000001 6.934481 -8.544260 63.908769 2.909302 -4.317389 67.934728 -0.000001 0.000004 0.000001 8.373431 -8.171780 73.989957 2.173658 -3.940938 57.745384 0.000002 -0.000004 -0.000001 -0.000001 0.000000 -0.000000 -0.000001 -0.000002 -0.000001 -0.000001 0.000000 -0.000000 -0.000001 0.000001 -0.000000 -0.000001 0.000001 0.000001 -0.000001 0.000001 -0.000000 -0.000001 0.000001 0.000003 0.000000 -0.000001 0.000000 0.000000 -0.000001 0.000000 0.000000 -0.000001 0.000000 0.000000 -0.000001 0.000000 0.000000 -0.000001 0.000000 0.000000 -0.000001 0.000000 0.000000 -0.000001 0.000000 -0.000000 0.000000 0.000000 -0.000000 -0.000001 0.000000 
